USFL
nRows=119
nColumns=2
inDegrees=yes
endheader
time	soleus_r	
3.14919	 25.400923	
3.22077	 25.266839	
3.29234	 25.352202	
3.36391	 25.434563	
3.43548	 25.542318	
3.50706	 25.592417	
3.57863	 26.238636	
3.6502	 26.200825	
3.72177	 26.368354	
3.79335	 25.643125	
3.86492	 25.464379	
3.93649	 25.503733	
4.00806	 25.439953	
4.07964	 25.390250	
4.15121	 25.395156	
4.22278	 25.346051	
4.29435	 25.345755	
4.36593	 25.345755	
4.4375	 25.345755	
4.50907	 25.345755	
4.58065	 25.345755	
4.65222	 25.345755	
4.72379	 25.345755	
4.79536	 25.345755	
4.86694	 25.345755	
4.93851	 25.345755	
5.01008	 25.345755	
5.08165	 25.345755	
5.15323	 25.345755	
5.2248	 25.345755	
5.29637	 25.345755	
5.36794	 25.345755	
5.43952	 25.345755	
5.51109	 25.345755	
5.58266	 25.345755	
5.65423	 25.345755	
5.72581	 25.345755	
5.79738	 25.345755	
5.86895	 25.345755	
5.94052	 25.345755	
6.0121	 25.345755	
6.08367	 25.345755	
6.15524	 25.345755	
6.22681	 25.345755	
6.29839	 25.345755	
6.36996	 25.345755	
6.44153	 25.345755	
6.5131	 25.345755	
6.58468	 25.345755	
6.65625	 25.345755	
6.72782	 25.345755	
6.7994	 25.345755	
6.87097	 25.345755	
6.94254	 25.345755	
7.01411	 25.345755	
7.08569	 25.345755	
7.15726	 25.345755	
7.22883	 25.345755	
7.3004	 25.345755	
7.37198	 25.345755	
7.44355	 25.345755	
7.51512	 25.345755	
7.58669	 25.345755	
7.65827	 25.345755	
7.72984	 25.345755	
7.80141	 25.345755	
7.87298	 25.345755	
7.94456	 25.345755	
8.01613	 25.345755	
8.0877	 25.345755	
8.15927	 25.345755	
8.23085	 25.345755	
8.30242	 25.345755	
8.37399	 25.345755	
8.44556	 25.345755	
8.51714	 25.345755	
8.58871	 25.345755	
8.66028	 25.345755	
8.73185	 25.345755	
8.80343	 25.345755	
8.875	 25.345755	
8.94657	 25.345755	
9.01815	 25.345755	
9.08972	 25.345755	
9.16129	 25.345755	
9.23286	 25.345755	
9.30444	 25.345755	
9.37601	 25.345755	
9.44758	 25.345755	
9.51915	 25.345755	
9.59073	 25.345755	
9.6623	 25.345755	
9.73387	 25.345755	
9.80544	 25.345755	
9.87702	 25.345755	
9.94859	 25.345755	
10.0202	 25.345755	
10.0917	 25.345755	
10.1633	 25.345755	
10.2349	 25.345755	
10.3065	 25.345755	
10.378	 25.345755	
10.4496	 25.345755	
10.5212	 25.345755	
10.5927	 25.345755	
10.6643	 25.345755	
10.7359	 25.345755	
10.8075	 25.345755	
10.879	 25.345755	
10.9506	 25.345755	
11.0222	 25.345755	
11.0937	 25.345755	
11.1653	 25.345755	
11.2369	 25.345755	
11.3085	 25.348856	
11.38	 25.345754	
11.4516	 25.345754	
11.5232	 25.345754	
11.5948	 25.345754	
